<?xml version="1.0" encoding="UTF-8"?> <svg xmlns="http://www.w3.org/2000/svg" width="191" height="45" fill="none"><g fill="#FFFEF3" clip-path="url(#a)"><path d="M21.443 37.34a17.986 17.986 0 0 1 0 6.789.39.39 0 0 0 .383.469h22.145a.396.396 0 0 0 .394-.395v-6.94a.396.396 0 0 0-.395-.394H21.827a.392.392 0 0 0-.383.469v.002ZM16.526 28.076a17.825 17.825 0 0 1 2.17 2.63c.14.207.43.237.605.062l15.655-15.651a.395.395 0 0 0 0-.559l-4.909-4.907a.395.395 0 0 0-.559 0L13.834 25.3a.393.393 0 0 0 .06.605c.927.627 1.81 1.348 2.632 2.17ZM7.731 22.78V.605a.396.396 0 0 0-.395-.394H.395A.395.395 0 0 0 0 .606V22.78c0 .248.225.43.47.384a18 18 0 0 1 6.79 0 .39.39 0 0 0 .47-.384h.001ZM81.041 15.264c.157-.366.166-.687.027-.965-.14-.278-.37-.435-.692-.469-.322-.034-.648.095-.979.39-1.34 1.236-2.597 2.123-3.772 2.662-1.174.54-2.223.809-3.144.809-.254 0-.496-.008-.73-.021v-5.447c.617-.538 1.3-1.003 2.047-1.394.965-.505 2.276-1.008 3.929-1.514.347-.103.578-.29.692-.56a.702.702 0 0 0-.091-.744c-.174-.225-.452-.34-.836-.34h-2.74l-3.002 3.667V.936l.286-.023c.992 0 2.024.265 3.094.795 1.07.53 2.162 1.396 3.276 2.597.261.278.553.414.873.404a.893.893 0 0 0 .757-.417c.183-.27.214-.614.092-1.032L79.266.208h-11.17v18.264h11.666l1.28-3.208ZM87.905 9.758c-1.045-.54-1.901-1.083-2.57-1.63-.67-.548-1.006-1.022-1.006-1.423 0-.21.1-.387.3-.535.2-.147.448-.222.743-.222.54 0 1.253.262 2.14.784A18.463 18.463 0 0 1 90.2 8.688c.261.227.517.34.77.34a.667.667 0 0 0 .588-.313c.14-.21.183-.496.13-.862l-.367-2.322c-1.548-.435-2.88-.652-3.993-.652-1.514 0-2.68.33-3.497.991-.819.662-1.227 1.487-1.227 2.479 0 .678.187 1.277.561 1.8.374.522.835.974 1.383 1.357.549.383 1.293.852 2.23 1.409 1.305.747 2.28 1.34 2.924 1.775.643.435 1.066.764 1.267.991.2.227.3.444.3.652 0 .296-.11.51-.327.639-.217.13-.5.196-.849.196-.8 0-1.844-.316-3.131-.953a15.86 15.86 0 0 1-3.522-2.362c-.21-.174-.427-.258-.652-.248a.692.692 0 0 0-.548.288c-.139.181-.192.414-.156.692l.444 2.764c.643.4 1.436.754 2.374 1.057.94.305 1.888.457 2.846.457 1.478 0 2.635-.37 3.47-1.11.836-.74 1.253-1.69 1.253-2.857 0-.992-.36-1.888-1.083-2.687-.722-.798-1.884-1.616-3.484-2.451h.002ZM104.763 5.584c-.784-.469-1.6-.703-2.452-.703-.906 0-1.732.26-2.48.783a7.081 7.081 0 0 0-1.765 1.792l-.296-2.444-3.314.523.339 3.157v15.132h3.286l.04-6.28c.461.414.961.736 1.503.957a4.684 4.684 0 0 0 1.8.366c.992 0 1.953-.326 2.883-.978.931-.652 1.684-1.561 2.258-2.726.574-1.165.862-2.488.862-3.966 0-1.357-.248-2.513-.744-3.47-.495-.957-1.134-1.668-1.918-2.139l-.002-.004Zm-1.043 11.194c-.349.783-.879 1.174-1.592 1.174-.592 0-1.192-.278-1.801-.835-.61-.557-1.121-1.348-1.539-2.374-.417-1.026-.627-2.2-.627-3.523V8.25c.332-.403.667-.71 1.005-.917.425-.262.856-.391 1.291-.391.799.017 1.484.396 2.048 1.134.565.74.992 1.65 1.28 2.726a13.12 13.12 0 0 1 .456 3.131c0 1.113-.174 2.06-.523 2.845h.002ZM118.32 5.544c-.757-.425-1.64-.638-2.649-.638-1.27 0-2.423.335-3.457 1.004-1.036.67-1.854 1.571-2.453 2.7-.6 1.13-.9 2.356-.9 3.68 0 1.323.269 2.4.809 3.391a5.953 5.953 0 0 0 2.258 2.336c.965.564 2.05.848 3.249.848 1.2 0 2.207-.265 3.067-.795.862-.53 1.623-1.256 2.285-2.179l-.367-.418a4.91 4.91 0 0 1-1.382.849 4.103 4.103 0 0 1-1.488.273c-1.218 0-2.231-.36-3.041-1.083a6.376 6.376 0 0 1-1.774-2.649c-.158-.44-.28-.873-.372-1.304h6.309c.486 0 .883-.034 1.188-.104.305-.07.56-.248.77-.536.21-.286.313-.734.313-1.344 0-.835-.204-1.61-.612-2.323a4.513 4.513 0 0 0-1.749-1.708h-.004Zm-6.406 4.267c0-.784.1-1.466.302-2.05.2-.581.482-1.035.848-1.355.365-.322.809-.482 1.332-.482.625 0 1.148.244 1.565.73.418.486.723 1.096.914 1.826.188.723.284 1.453.286 2.193h-5.197a8.355 8.355 0 0 1-.048-.862h-.002ZM123.084 18.472h3.393V9.13a3.468 3.468 0 0 1 1.148-.415c.747-.14 1.583-.14 2.506 0 .349.051.644-.017.886-.21.244-.19.365-.469.365-.835V5.008c-.992 0-1.94.36-2.846 1.083-.717.572-1.419 1.356-2.103 2.338l-.403-3.42-3.365.522.417 3.706v9.235h.002ZM136.706 5.272h-3.393v13.2h3.393v-13.2ZM133.68 2.934c.348.305.774.458 1.279.458.54 0 .988-.17 1.345-.51.356-.339.543-.75.562-1.239 0-.486-.175-.882-.522-1.185-.349-.305-.775-.458-1.278-.458-.54 0-.988.17-1.345.509-.356.34-.534.753-.534 1.24-.017.485.147.882.496 1.185h-.003ZM149.769 11.454c.305-.068.561-.247.771-.535.209-.286.312-.734.312-1.344 0-.835-.204-1.61-.612-2.323a4.513 4.513 0 0 0-1.749-1.708c-.757-.425-1.64-.638-2.648-.638-1.271 0-2.424.335-3.458 1.004a7.128 7.128 0 0 0-2.452 2.7 7.716 7.716 0 0 0-.901 3.68c0 1.323.269 2.4.809 3.391a5.953 5.953 0 0 0 2.258 2.336c.965.564 2.05.848 3.25.848 1.199 0 2.206-.265 3.066-.795.862-.53 1.623-1.256 2.285-2.179l-.366-.418a4.915 4.915 0 0 1-1.383.849 4.103 4.103 0 0 1-1.488.273c-1.218 0-2.231-.36-3.041-1.083a6.376 6.376 0 0 1-1.774-2.649c-.158-.44-.28-.873-.372-1.304h6.309c.486 0 .883-.034 1.188-.104h-.004Zm-7.685-1.643c0-.784.099-1.466.301-2.05.2-.581.483-1.035.849-1.355.364-.322.808-.482 1.331-.482.625 0 1.148.244 1.565.73.418.486.723 1.096.914 1.826a8.72 8.72 0 0 1 .286 2.193h-5.197a8.352 8.352 0 0 1-.047-.862h-.002ZM161.187 4.906c-.923 0-1.827.33-2.714.99a7.804 7.804 0 0 0-1.92 2.081l-.351-2.967-3.366.523.417 3.706v9.235h3.393V8.791a6.169 6.169 0 0 1 1.226-1.068c.54-.347 1.07-.522 1.593-.522.644 0 1.127.244 1.447.73.322.486.482 1.157.482 2.01v8.531h3.393v-8.297c0-1.653-.336-2.944-1.005-3.874-.669-.93-1.535-1.395-2.597-1.395h.002ZM167.945 5.272l-.809 2.764c-.087.313-.064.57.065.77a.66.66 0 0 0 .561.313c.244.008.479-.092.704-.301.869-.887 1.731-1.587 2.584-2.1.852-.512 1.565-.77 2.139-.77.191 0 .403.01.635.027l-7.395 12.497h10.569l.784-2.793c.087-.295.061-.556-.079-.783a.758.758 0 0 0-.6-.378c-.262-.026-.513.084-.757.326-.87.87-1.749 1.575-2.636 2.113-.887.54-1.619.808-2.193.808-.307.01-.593.002-.864-.02l7.363-12.477h-10.073l.002.004ZM190.833 18.472l-.652-3.523.052-4.461c.017-2-.401-3.436-1.253-4.305-.853-.87-2.001-1.304-3.446-1.304-.801 0-1.678.114-2.636.34-.957.224-1.722.478-2.296.756l-.417 2.635c-.052.349.003.631.169.848a.72.72 0 0 0 .653.302c.268-.018.516-.157.743-.418 1.2-1.373 2.113-2.326 2.741-2.856.627-.53 1.138-.795 1.541-.795.261 0 .452.143.574.43.122.289.183.84.183 1.658V9.57l-2.741 1.289-.991.495c-1.026.506-1.841.988-2.441 1.447-.601.462-1.03.927-1.291 1.396a3.11 3.11 0 0 0-.391 1.539c0 .886.278 1.616.835 2.192.557.574 1.375.862 2.452.862 1.078 0 2.079-.301 2.897-.9a6.428 6.428 0 0 0 1.766-1.983l.505 2.57h3.446l-.002-.006Zm-5.166-2.518c-.486.2-.949.301-1.382.301-.626 0-1.131-.183-1.514-.549-.384-.364-.574-.825-.574-1.382 0-.557.251-1.117.757-1.63.505-.513 1.306-1.03 2.401-1.552l1.436-.667v4.713c-.29.322-.662.58-1.124.768v-.002ZM70.784 26.592c-.35-.305-.775-.457-1.278-.457-.54 0-.988.17-1.345.509-.356.34-.535.753-.535 1.24-.018.485.146.882.495 1.185.347.305.775.457 1.28.457.54 0 .988-.17 1.344-.509.357-.339.544-.75.561-1.239 0-.486-.174-.883-.522-1.186ZM71.15 31.406h-3.393v13.201h3.393v-13.2ZM82.476 31.042c-.923 0-1.827.33-2.714.992a7.862 7.862 0 0 0-1.92 2.08l-.351-2.967-3.366.523.417 3.706v9.235h3.393V34.93a6.164 6.164 0 0 1 1.226-1.068c.54-.347 1.07-.522 1.593-.522.642 0 1.127.244 1.447.73.322.486.483 1.157.483 2.01v8.531h3.392v-8.297c0-1.653-.335-2.944-1.005-3.874-.67-.93-1.535-1.396-2.597-1.396l.002-.002ZM106.146 39.952c-.313-.044-.637.091-.965.404-1.307 1.218-2.479 2.1-3.525 2.648-1.045.547-1.966.822-2.767.822a6.05 6.05 0 0 1-.802-.056V26.344h-3.294l-.027 18.265h10.779l1.278-3.209c.139-.348.139-.665 0-.953a.846.846 0 0 0-.677-.495ZM119.978 31.406h-3.42v9.783a6.633 6.633 0 0 1-1.174.98c-.557.356-1.097.534-1.618.534-.644 0-1.127-.242-1.449-.73-.322-.487-.482-1.166-.482-2.035v-8.507h-3.393v8.27c0 1.654.33 2.944.992 3.875.659.93 1.531 1.395 2.61 1.395.921 0 1.831-.331 2.727-.991a8.046 8.046 0 0 0 1.921-2.034l.467 2.66h3.419l-.6-3.966v-9.236.002ZM132.179 42.274a4.037 4.037 0 0 1-1.423.248c-1.079 0-2.058-.367-2.937-1.097-.877-.73-1.565-1.653-2.061-2.766-.496-1.112-.744-2.208-.744-3.287 0-.54.074-1.026.221-1.462a2.18 2.18 0 0 1 .717-1.043c.33-.261.748-.391 1.253-.391.626 0 1.331.244 2.113.73.784.486 1.627 1.287 2.533 2.4.21.262.444.4.703.418a.757.757 0 0 0 .653-.275c.173-.2.234-.455.183-.77l-.496-3.079c-.349-.244-.862-.452-1.539-.625a8.19 8.19 0 0 0-2.037-.261c-1.27 0-2.435.33-3.495.991a7.224 7.224 0 0 0-2.531 2.686c-.626 1.13-.94 2.374-.94 3.731 0 1.253.265 2.38.795 3.379a5.84 5.84 0 0 0 2.245 2.349c.965.564 2.065.848 3.301.848 1.165 0 2.122-.261 2.872-.783.747-.523 1.478-1.26 2.193-2.218l-.391-.39c-.349.278-.744.499-1.186.665l-.002.002ZM145.671 37.591c.305-.068.561-.248.77-.535.21-.286.313-.735.313-1.345 0-.835-.204-1.609-.612-2.322a4.513 4.513 0 0 0-1.749-1.708c-.757-.425-1.64-.639-2.649-.639-1.27 0-2.423.336-3.457 1.005-1.036.67-1.854 1.571-2.453 2.7-.6 1.13-.9 2.356-.9 3.68 0 1.322.269 2.4.809 3.391a5.952 5.952 0 0 0 2.258 2.336c.965.564 2.05.848 3.249.848 1.2 0 2.207-.265 3.067-.795.862-.53 1.623-1.257 2.285-2.18l-.367-.417a4.908 4.908 0 0 1-1.382.849 4.103 4.103 0 0 1-1.488.272c-1.218 0-2.231-.36-3.041-1.083A6.376 6.376 0 0 1 138.55 39c-.158-.44-.28-.873-.372-1.304h6.309c.486 0 .883-.034 1.188-.105h-.004Zm-7.685-1.643c0-.784.099-1.466.301-2.05.2-.581.482-1.035.849-1.355.364-.322.808-.483 1.331-.483.625 0 1.148.244 1.565.73.418.487.723 1.097.914 1.827a8.72 8.72 0 0 1 .286 2.193h-5.197a8.355 8.355 0 0 1-.048-.862h-.001Z"></path></g><defs><clipPath id="a"><path fill="#fff" d="M0 0h190.833v45H0z"></path></clipPath></defs></svg> 