<svg xmlns="http://www.w3.org/2000/svg" viewBox="900 100 820 120" preserveAspectRatio="xMidYMid meet">
  <g xmlns="http://www.w3.org/2000/svg">
    <path fill="#f0d7bf" d="M1163.957,147.314h-2.657v-.003l-73.253-.621s3.406,17.573,8.252,17.573h23.514v40.417h17.286v-40.417h18.189v31.827c0,5.815,3.102,8.888,8.97,8.888h51.568v-16.549h-43.228c-.034,0-.063-.002-.085-.003-.01-.055-.02-.14-.02-.266v-5.503h43.089v-13.033h-43.089v-5.093c0-.082.005-.142.012-.184.025-.002.056-.004.094-.004h43.228v-17.04h-51.486c-.132,0-.254.009-.383.012Z"/>
    <path fill="#f0d7bf" d="M1284.345,198.542v-11.038c0-5.68-1.29-9.072-4.513-11.541,2.942-2.734,4.431-6.543,4.431-11.352,0-4.301-1.685-8.456-4.746-11.702-3.579-3.773-8.491-5.607-15.017-5.607h-39.246c-3.102,0-4.882,1.689-4.882,4.636v53.039h17.204v-19.623h24.552c4.098,0,4.848,1.248,4.848,3.703v11.038c0,1.273.086,2.564.256,3.838l.139,1.043h17.35l-.14-1.328c-.155-1.473-.239-2.723-.239-5.107ZM1265.79,168.985c-.814.962-1.787,1.373-3.252,1.373h-24.961v-6.81c0-.008,0-.016,0-.024.007,0,.015,0,.023,0h24.938c1.418,0,2.466.363,3.156,1.12.556.556.874,1.379.874,2.257,0,.918-.435,1.654-.778,2.085Z"/>
    <path fill="#f0d7bf" d="M1353.04,198.542v-11.038c0-5.68-1.29-9.072-4.513-11.541,2.942-2.734,4.431-6.543,4.431-11.352,0-4.301-1.684-8.456-4.745-11.702-3.58-3.773-8.492-5.607-15.017-5.607h-39.246c-3.102,0-4.882,1.689-4.882,4.636v53.039h17.204v-19.623h24.552c4.098,0,4.848,1.248,4.848,3.703v11.038c0,1.275.086,2.567.256,3.838l.139,1.043h17.35l-.14-1.328c-.155-1.469-.239-2.718-.239-5.107ZM1334.485,168.985c-.814.962-1.787,1.373-3.252,1.373h-24.961v-6.81c0-.008,0-.016,0-.024.007,0,.015,0,.023,0h24.938c1.418,0,2.466.363,3.156,1.12.556.556.874,1.379.874,2.257,0,.918-.435,1.654-.778,2.085Z"/>
    <path fill="#f0d7bf" d="M1488.048,184.234c0,.124-.013.211-.027.268-.224-.006-.249-.04-.327-.149l-27.039-32.371c-3.571-4.25-7.176-5.906-12.858-5.906-9.053,0-14.039,5.015-14.039,14.121v44.781h16.959v-38.649c0-.131.024-.351.187-.351.109,0,.269.165.399.32l30.334,35.076c2.764,3.196,6.592,4.75,11.702,4.75,8.552,0,11.586-7.034,11.586-13.058v-45.763h-16.877v36.932Z"/>
    <path fill="#f0d7bf" d="M1572.042,154.893c-5.497-5.038-12.648-7.592-21.253-7.592h-11.61c-8.605,0-15.755,2.554-21.257,7.596-5.909,5.468-9.298,13.21-9.298,21.242,0,7.312,2.638,14.219,7.427,19.451,5.678,6.228,13.46,9.386,23.127,9.386h11.61c9.668,0,17.449-3.157,23.126-9.384,4.79-5.234,7.428-12.142,7.428-19.453,0-8.031-3.388-15.774-9.301-21.246ZM1561.016,184.162c-2.35,2.595-5.697,3.857-10.228,3.857h-11.61c-4.53,0-7.877-1.262-10.238-3.868-2.007-2.161-3.113-4.978-3.113-7.93,0-3.265,1.351-6.402,3.705-8.604,2.433-2.265,5.407-3.276,9.646-3.276h11.61c4.239,0,7.213,1.011,9.644,3.274,2.356,2.204,3.708,5.34,3.708,8.605,0,2.953-1.106,5.77-3.124,7.942Z"/>
    <path fill="#f0d7bf" d="M1651.828,150.614c.231-.587.435-1.185.605-1.781l.437-1.532h-19.784l-.227.911c-.147.587-.374,1.269-.592,1.78l-16.349,38.174c-.436.997-.818.997-1.187.997-.374,0-.91-.1-1.268-.992l-16.494-38.127c-.216-.576-.368-1.098-.524-1.803l-.211-.94h-20.076l.464,1.548c.265.884.529,1.665.957,2.606l19.948,43.821c1.603,3.544,3.692,6.145,6.384,7.949,4.126,2.763,8.242,2.847,10.712,2.897.153.003.305.005.455.005,3.079,0,5.356-.634,6.466-1.024,1.962-.689,3.328-1.547,3.699-1.793,2.7-1.791,4.808-4.418,6.443-8.035l19.786-43.822c.133-.293.25-.571.355-.839Z"/>
    <g>
      <path fill="#f0d7bf" d="M1080.884,147.591c-.317-.752-1.025-1.291-1.874-1.434-2.378-.399-7.254-1.409-8.662-3.171-.38-.476-1.084-.617-1.663-.367-12.546,5.417-12.455,12.644-2.687,15.077-20.57,6.9-21.455-10.986-3.535-19.11-7.058-10.78-24.223-22.496-34.391-28.837-4.826-3.01-10.934-3.6-16.347-1.576l-27.644,10.337c.816.78,1.632,1.561,2.447,2.342-8.585,3.36-17.171,6.721-25.756,10.081.797.808,1.595,1.616,2.392,2.424-10.451,4.991-20.902,9.982-31.353,14.973,1.295,21.656-19.739,33.709-19.739,33.709l-3.052,23.337h15.898c-1.031-5.446-.448-14.174,12.584-17.001,19.438-4.217,25.844-19.617,25.844-19.617.732,4.37-2.982,11.562-2.982,11.562,0,0,5.82-.342,12.045,7.678,21.976.475,23.339-1.645,19.59-20.039,8.778,26.233,12.537,17.74,16.247,19.106,4.599,7.2,8.119,12.551,9.598,14.823.301.462.992,1.526,2.318,2.26,1.13.626,2.25.75,2.959.768,4.205.066,8.41.132,12.615.197-.34-.337-1-1.005-1.765-1.895-5.877-6.835-8.247-15.418-8.247-15.419,0,0,.574-.912,8.216-3.127,7.642-2.215,10.199,9.041,12.935,11.456,2.736,2.415,7.81-6.482,15.592-.653,32.399-10.089,21.204-41.285,18.419-47.883ZM1062.453,174.921c-2.379-5.378.868-8.029.868-8.029,4.199,1.415,6.485,7.597,6.485,7.597,0,0-2.31-.662-7.353.432Z"/>
      <path fill="#f0d7bf" d="M982.714,205.376h18.17c-2.647-3.629-4.8-7.557-6.403-11.694l-2.412-6.604c-3.358,2.162-9.043,2.416-11.332,2.394l1.267,14.262c.056.626.315,1.19.71,1.642Z"/>
      <path fill="#f0d7bf" d="M967.21,205.376c-5.721-3.613-10.251-8.692-13.016-14.678l-3.196-6.264c-2.64,1.825-6.925,4.127-11.813,5.08l9.788,15.862h18.238Z"/>
    </g>
    <path fill="#f0d7bf" d="M1633.951,202.198c-.231.587-.435,1.185-.605,1.781l-.437,1.532h19.784l.227-.911c.147-.587.374-1.269.592-1.78l16.349-38.174c.436-.997.818-.997,1.187-.997.374,0,.91.1,1.268.992l16.494,38.127c.216.576.368,1.098.524,1.803l.211.94h20.076l-.464-1.548c-.265-.884-.529-1.665-.957-2.606l-19.948-43.821c-1.603-3.544-3.692-6.145-6.384-7.949-4.126-2.763-8.242-2.847-10.712-2.897-.153-.003-.305-.005-.455-.005-3.079,0-5.356.634-6.466,1.024-1.962.689-3.328,1.547-3.699,1.793-2.7,1.791-4.808,4.418-6.443,8.035l-19.786,43.822c-.133.293-.25.571-.355.839Z"/>
    <path fill="#f0d7bf" d="M1356.098,201.585c-.231.587-.435,1.185-.605,1.781l-.437,1.532h19.784l.227-.911c.147-.587.374-1.269.592-1.78l16.349-38.174c.436-.997.818-.997,1.187-.997.374,0,.91.1,1.268.992l16.494,38.127c.216.576.368,1.098.524,1.803l.211.94h20.076l-.464-1.548c-.265-.884-.529-1.665-.957-2.606l-19.948-43.821c-1.603-3.544-3.692-6.145-6.384-7.949-4.126-2.763-8.242-2.847-10.712-2.897-.153-.003-.305-.005-.455-.005-3.079,0-5.356.634-6.466,1.024-1.962.689-3.328,1.547-3.699,1.793-2.7,1.791-4.808,4.418-6.443,8.035l-19.786,43.822c-.133.293-.25.571-.355.839Z"/>
  </g>
</svg>

